<svg width="1600" height="520" viewBox="0 0 1600 520" fill="none" xmlns="http://www.w3.org/2000/svg">
  <defs>
    <linearGradient id="bg" x1="140" y1="40" x2="1440" y2="460" gradientUnits="userSpaceOnUse">
      <stop stop-color="#FFE5F1"/>
      <stop offset="0.45" stop-color="#EAF8FF"/>
      <stop offset="1" stop-color="#F3E9FF"/>
    </linearGradient>
    <linearGradient id="paper" x1="346" y1="102" x2="1260" y2="432" gradientUnits="userSpaceOnUse">
      <stop stop-color="#FFFDFB" stop-opacity="0.98"/>
      <stop offset="1" stop-color="#FFF8FC" stop-opacity="0.94"/>
    </linearGradient>
    <linearGradient id="shine" x1="428" y1="118" x2="1190" y2="392" gradientUnits="userSpaceOnUse">
      <stop stop-color="white" stop-opacity="0.88"/>
      <stop offset="1" stop-color="#FFFFFF" stop-opacity="0"/>
    </linearGradient>
    <radialGradient id="orbPink" cx="0" cy="0" r="1" gradientUnits="userSpaceOnUse" gradientTransform="translate(212 84) rotate(44.5614) scale(208.346 180.177)">
      <stop stop-color="#FFD4EA" stop-opacity="0.92"/>
      <stop offset="1" stop-color="#FFD4EA" stop-opacity="0"/>
    </radialGradient>
    <radialGradient id="orbBlue" cx="0" cy="0" r="1" gradientUnits="userSpaceOnUse" gradientTransform="translate(1366 124) rotate(145.558) scale(248.928 198.014)">
      <stop stop-color="#CEF0FF" stop-opacity="0.95"/>
      <stop offset="1" stop-color="#CEF0FF" stop-opacity="0"/>
    </radialGradient>
    <filter id="shadow" x="298" y="66" width="1006" height="394" filterUnits="userSpaceOnUse" color-interpolation-filters="sRGB">
      <feFlood flood-opacity="0" result="BackgroundImageFix"/>
      <feColorMatrix in="SourceAlpha" type="matrix" values="0 0 0 0 0 0 0 0 0 0 0 0 0 0 0 0 0 0 127 0" result="hardAlpha"/>
      <feOffset dy="20"/>
      <feGaussianBlur stdDeviation="18"/>
      <feColorMatrix type="matrix" values="0 0 0 0 0.72549 0 0 0 0 0.72549 0 0 0 0 0.831373 0 0 0 0.24 0"/>
      <feBlend mode="normal" in2="BackgroundImageFix" result="effect1_dropShadow_0_1"/>
      <feBlend mode="normal" in="SourceGraphic" in2="effect1_dropShadow_0_1" result="shape"/>
    </filter>
  </defs>

  <rect width="1600" height="520" rx="36" fill="url(#bg)"/>
  <rect width="1600" height="520" rx="36" fill="white" fill-opacity="0.12"/>
  <circle cx="214" cy="84" r="188" fill="url(#orbPink)"/>
  <circle cx="1368" cy="124" r="214" fill="url(#orbBlue)"/>
  <circle cx="1324" cy="398" r="172" fill="#E8D9FF" fill-opacity="0.36"/>
  <circle cx="232" cy="402" r="154" fill="#FFF0F7" fill-opacity="0.72"/>

  <path d="M152 112C185.728 112 213.143 84.5853 213.143 50.8571" stroke="white" stroke-opacity="0.7" stroke-width="2.4"/>
  <path d="M1388 410C1345.61 410 1311.25 444.355 1311.25 486.743" stroke="white" stroke-opacity="0.6" stroke-width="2.4"/>
  <circle cx="1246" cy="140" r="84" stroke="white" stroke-opacity="0.48" stroke-width="2.2" stroke-dasharray="6 12"/>
  <circle cx="1198" cy="358" r="62" stroke="#FFFFFF" stroke-opacity="0.54" stroke-width="2" stroke-dasharray="5 10"/>

  <g opacity="0.88">
    <path d="M106 346C117.884 328.227 141.83 322.783 160.398 333.508C141.803 339.837 129.848 355.173 126.035 379.516C109.274 372.273 100.163 354.428 106 346Z" fill="#F9CBE1"/>
    <path d="M159.361 334.006C176.276 321.979 200.636 324.926 214.165 340.636C194.582 341.09 178.724 350.792 166.597 369.741C153.174 357.462 150.875 339.126 159.361 334.006Z" fill="#DCCEFF"/>
    <path d="M1482 170C1492.85 153.77 1516.38 149.032 1535.76 158.762C1519.63 166.088 1508.08 179.846 1501.12 200.036C1485.87 192.887 1476.18 178.84 1482 170Z" fill="#D7EEFF"/>
  </g>

  <g filter="url(#shadow)">
    <rect x="334" y="102" width="932" height="322" rx="28" fill="url(#paper)"/>
    <rect x="334.8" y="102.8" width="930.4" height="320.4" rx="27.2" stroke="white" stroke-opacity="0.82" stroke-width="1.6"/>
    <rect x="366" y="132" width="868" height="262" rx="24" stroke="#E7DDEC" stroke-opacity="0.78" stroke-width="2" stroke-dasharray="8 8"/>
    <rect x="334" y="102" width="932" height="322" rx="28" fill="url(#shine)"/>
    <rect x="374" y="128" width="14" height="268" rx="7" fill="#EAEFFF"/>
    <circle cx="381" cy="162" r="5" fill="#C7D5F3"/>
    <circle cx="381" cy="218" r="5" fill="#C7D5F3"/>
    <circle cx="381" cy="274" r="5" fill="#C7D5F3"/>
    <circle cx="381" cy="330" r="5" fill="#C7D5F3"/>
    <path d="M400 176H1190" stroke="#E8ECFA" stroke-width="1.5"/>
    <path d="M400 232H1190" stroke="#EEF1FB" stroke-width="1.5"/>
    <path d="M400 288H1190" stroke="#EEF1FB" stroke-width="1.5"/>
    <path d="M400 344H1190" stroke="#EEF1FB" stroke-width="1.5"/>
  </g>

  <rect x="396" y="88" width="148" height="30" rx="12" transform="rotate(-5 396 88)" fill="white" fill-opacity="0.66" stroke="white" stroke-opacity="0.72"/>
  <rect x="1064" y="94" width="142" height="28" rx="12" transform="rotate(6 1064 94)" fill="white" fill-opacity="0.64" stroke="white" stroke-opacity="0.68"/>

  <rect x="424" y="144" width="218" height="34" rx="17" fill="white" fill-opacity="0.72" stroke="#EFE7F7" stroke-opacity="0.88"/>
  <circle cx="448" cy="161" r="6" fill="#FFD7EB"/>
  <text x="466" y="166.5" fill="#B97B99" font-size="14" font-family="'Segoe UI', 'Microsoft YaHei', sans-serif" letter-spacing="1.6">world-structure-skill</text>

  <text x="424" y="236" fill="#655D7E" font-size="56" font-weight="700" font-family="'Segoe UI', 'Microsoft YaHei', sans-serif">世界结构.skill</text>
  <text x="424" y="288" fill="#8A7EA4" font-size="26" font-weight="600" font-family="'Segoe UI', 'Microsoft YaHei', sans-serif">给 AI 和人类共同使用的一册结构手记</text>
  <text x="424" y="334" fill="#847A98" font-size="22" font-family="'Segoe UI', 'Microsoft YaHei', sans-serif">不是解释万物，而是陪你把复杂对象慢慢看清。</text>
  <text x="424" y="380" fill="#A0789A" font-size="18" font-family="'Segoe UI', 'Microsoft YaHei', sans-serif">锚点 · 约束 · 角色 · 推力链 · 扰动 · 熵增 · 演化阶段</text>

  <g opacity="0.92">
    <circle cx="1260" cy="304" r="38" fill="white" fill-opacity="0.62"/>
    <path d="M1260 280C1266.67 292.667 1277.33 300 1292 302C1278.67 306 1269.67 313.667 1265 326C1261 314 1251.33 306.333 1236 303C1249.33 299 1257.33 291.333 1260 280Z" fill="#FFD2E8"/>
    <circle cx="1260" cy="304" r="52" stroke="white" stroke-opacity="0.62" stroke-width="2" stroke-dasharray="6 10"/>
  </g>

  <path d="M116 62C135.285 69.7736 149.773 84.6589 158 104C141.667 96 126.667 95.3333 113 102C113 88.6667 114 75.3333 116 62Z" fill="#FFFFFF" fill-opacity="0.48"/>
  <path d="M1478 458C1460.31 449.69 1446.98 435.98 1438 417C1455.33 423 1470.33 422.667 1483 416C1482.33 430 1480.67 444 1478 458Z" fill="#FFFFFF" fill-opacity="0.44"/>
</svg>
